<?xml version="1.0" standalone="no"?>
<!DOCTYPE svg PUBLIC "-//W3C//DTD SVG 20010904//EN"
 "http://www.w3.org/TR/2001/REC-SVG-20010904/DTD/svg10.dtd">
<svg version="1.0" xmlns="http://www.w3.org/2000/svg"
 width="100.000000pt" height="100.000000pt" viewBox="0 0 100.000000 100.000000"
 preserveAspectRatio="xMidYMid meet">

<g transform="translate(0.000000,100.000000) scale(0.100000,-0.100000)"
fill="#000000" stroke="none">
<path d="M65 991 c-11 -5 -29 -19 -40 -31 -19 -21 -20 -36 -20 -461 l0 -439
28 -27 27 -28 440 0 440 0 27 28 28 27 0 440 0 440 -28 27 -27 28 -428 2
c-235 1 -436 -2 -447 -6z m315 -201 c0 -18 -7 -20 -70 -20 l-70 0 0 -85 0 -85
50 0 c28 0 50 -4 50 -10 0 -15 -35 -30 -69 -30 l-31 0 0 -105 c0 -98 -1 -105
-20 -105 -19 0 -20 7 -20 230 l0 230 90 0 c83 0 90 -1 90 -20z m163 9 c14 -6
30 -22 36 -36 15 -33 15 -334 0 -367 -15 -32 -56 -46 -130 -46 l-59 0 0 230 0
230 65 0 c35 0 75 -5 88 -11z"/>
<path d="M430 580 l0 -191 58 3 57 3 0 185 0 185 -57 3 -58 3 0 -191z"/>
</g>
</svg>
