<svg width="121" height="121" viewBox="0 0 121 121" fill="none" xmlns="http://www.w3.org/2000/svg">
<rect x="1.54787" y="0.667839" width="118.863" height="118.863" rx="10.8033" fill="#06293D" stroke="#F14448" stroke-width="1.13719"/>
<path d="M45.354 23.0974V27.8282H28.9784V46.933H40.3806V47.4182C40.3806 48.7121 39.9965 49.7431 39.2283 50.5114C38.46 51.2796 37.429 51.6637 36.1351 51.6637H28.9784V75.4993H24.187V23.0974H45.354Z" fill="#3B95C7"/>
<path d="M60.8759 23.0974C63.6254 23.0974 65.8291 23.9263 67.4868 25.5841C69.1446 27.2419 69.9735 29.4455 69.9735 32.195V66.4017C69.9735 69.1512 69.1446 71.3548 67.4868 73.0126C65.8291 74.6704 63.6254 75.4993 60.8759 75.4993H46.987V23.0974H60.8759ZM51.7784 27.8888V70.7079H60.9366C62.2305 70.7079 63.2615 70.3238 64.0298 69.5555C64.798 68.7873 65.1821 67.7563 65.1821 66.4624V32.1343C65.1821 30.8405 64.798 29.8094 64.0298 29.0412C63.2615 28.2729 62.2305 27.8888 60.9366 27.8888H51.7784Z" fill="#3B95C7"/>
<path d="M86.0759 23.0974C88.8254 23.0974 91.029 23.9263 92.6868 25.5841C94.3446 27.2419 95.1735 29.4455 95.1735 32.195V66.4017C95.1735 69.1512 94.3446 71.3548 92.6868 73.0126C91.029 74.6704 88.8254 75.4993 86.0759 75.4993H72.187V23.0974H86.0759ZM76.9784 27.8888V70.7079H86.1366C87.4305 70.7079 88.4615 70.3238 89.2297 69.5555C89.998 68.7873 90.3821 67.7563 90.3821 66.4624V32.1343C90.3821 30.8405 89.998 29.8094 89.2297 29.0412C88.4615 28.2729 87.4305 27.8888 86.1366 27.8888H76.9784Z" fill="#F14448"/>
<path d="M30.8455 82.074V82.961H27.7751V86.5431H29.913V86.6341C29.913 86.8767 29.841 87.07 29.697 87.2141C29.5529 87.3581 29.3596 87.4301 29.117 87.4301H27.7751V91.8993H26.8767V82.074H30.8455ZM34.1676 82.8586C34.213 82.6236 34.323 82.4341 34.4973 82.29C34.6717 82.146 34.8802 82.074 35.1228 82.074H35.4412L37.3972 91.8993H36.4419L35.9984 89.6363H33.7582L33.3147 91.8993H32.3708L34.1676 82.8586ZM35.862 88.7379L34.884 83.666L33.8946 88.7379H35.862ZM39.5076 89.5453H40.3718V90.2504C40.3718 90.493 40.4439 90.6863 40.5879 90.8303C40.7319 90.9744 40.9253 91.0464 41.1679 91.0464H41.998C42.2406 91.0464 42.4339 90.9744 42.578 90.8303C42.722 90.6863 42.7941 90.493 42.7941 90.2504V88.4763C42.7941 88.2337 42.722 88.029 42.578 87.8623C42.4339 87.6955 42.2444 87.5931 42.0094 87.5552L41.1906 87.4188C40.9404 87.3733 40.7092 87.2937 40.4969 87.1799C40.2922 87.0662 40.1141 86.9222 39.9624 86.7478C39.8184 86.5734 39.7047 86.3763 39.6213 86.1565C39.5455 85.929 39.5076 85.6864 39.5076 85.4287V83.7229C39.5076 83.2074 39.663 82.7942 39.9738 82.4833C40.2846 82.1725 40.6978 82.0171 41.2134 82.0171H41.9525C42.4681 82.0171 42.8812 82.1725 43.1921 82.4833C43.5029 82.7942 43.6583 83.2074 43.6583 83.7229V85.1103L42.7941 84.6554V83.7229C42.7941 83.4803 42.722 83.287 42.578 83.1429C42.4339 82.9989 42.2406 82.9268 41.998 82.9268H41.1679C40.9253 82.9268 40.7319 82.9989 40.5879 83.1429C40.4439 83.287 40.3718 83.4803 40.3718 83.7229V85.4969C40.3718 85.7395 40.4439 85.9442 40.5879 86.111C40.7319 86.2778 40.9215 86.3801 41.1565 86.418L41.9753 86.5545C42.2255 86.6 42.4529 86.6796 42.6576 86.7933C42.8699 86.907 43.048 87.0511 43.1921 87.2254C43.3437 87.3998 43.4574 87.6007 43.5332 87.8281C43.6166 88.048 43.6583 88.2868 43.6583 88.5446V90.2504C43.6583 90.7659 43.5029 91.1791 43.1921 91.4899C42.8812 91.8007 42.4681 91.9562 41.9525 91.9562H41.2134C40.6978 91.9562 40.2846 91.8007 39.9738 91.4899C39.663 91.1791 39.5076 90.7659 39.5076 90.2504V89.5453ZM45.6315 82.961V82.074H50.1234V82.961H48.3267V91.8993H47.4283V82.961H45.6315ZM58.3594 82.074C58.8749 82.074 59.2881 82.2294 59.5989 82.5402C59.9097 82.851 60.0652 83.2642 60.0652 83.7797V90.1935C60.0652 90.709 59.9097 91.1222 59.5989 91.433C59.2881 91.7439 58.8749 91.8993 58.3594 91.8993H55.7552V82.074H58.3594ZM56.6536 82.9723V91.0009H58.3707C58.6133 91.0009 58.8067 90.9289 58.9507 90.7848C59.0948 90.6408 59.1668 90.4475 59.1668 90.2049V83.7684C59.1668 83.5258 59.0948 83.3324 58.9507 83.1884C58.8067 83.0444 58.6133 82.9723 58.3707 82.9723H56.6536ZM62.4637 91.8993V82.074H63.3621V91.8993H62.4637ZM65.8673 90.2504V83.7229C65.8673 83.2074 66.0227 82.7942 66.3336 82.4833C66.6444 82.1725 67.0576 82.0171 67.5731 82.0171H68.4715C68.987 82.0171 69.4002 82.1725 69.711 82.4833C70.0219 82.7942 70.1773 83.2074 70.1773 83.7229V85.0193L69.2789 84.5644V83.7115C69.2789 83.4689 69.2069 83.2756 69.0628 83.1315C68.9188 82.9875 68.7255 82.9155 68.4829 82.9155H67.5617C67.3191 82.9155 67.1258 82.9875 66.9818 83.1315C66.8377 83.2756 66.7657 83.4689 66.7657 83.7115V90.2617C66.7657 90.5043 66.8377 90.6977 66.9818 90.8417C67.1258 90.9857 67.3191 91.0578 67.5617 91.0578H68.4829C68.7255 91.0578 68.9188 90.9857 69.0628 90.8417C69.2069 90.6977 69.2789 90.5043 69.2789 90.2617V88.4877H68.3919V87.5893H70.1773V90.2504C70.1773 90.7659 70.0219 91.1791 69.711 91.4899C69.4002 91.8007 68.987 91.9562 68.4715 91.9562H67.5731C67.0576 91.9562 66.6444 91.8007 66.3336 91.4899C66.0227 91.1791 65.8673 90.7659 65.8673 90.2504ZM72.6292 91.8993V82.074H73.5276V91.8993H72.6292ZM75.688 82.961V82.074H80.18V82.961H78.3832V91.8993H77.4848V82.961H75.688ZM83.0038 82.8586C83.0492 82.6236 83.1592 82.4341 83.3335 82.29C83.5079 82.146 83.7164 82.074 83.959 82.074H84.2774L86.2334 91.8993H85.2781L84.8346 89.6363H82.5944L82.1509 91.8993H81.207L83.0038 82.8586ZM84.6982 88.7379L83.7202 83.666L82.7308 88.7379H84.6982ZM89.2954 82.074V91.0009H91.3424C91.5471 91.0009 91.7101 91.0654 91.8314 91.1942C91.9603 91.3155 92.0247 91.4785 92.0247 91.6832V91.8993H88.3971V82.074H89.2954Z" fill="#3B95C7"/>
<path d="M36.6809 94.0738C37.1964 94.0738 37.6096 94.2292 37.9204 94.5401C38.2313 94.8509 38.3867 95.2641 38.3867 95.7796V102.193C38.3867 102.709 38.2313 103.122 37.9204 103.433C37.6096 103.744 37.1964 103.899 36.6809 103.899H34.0767V94.0738H36.6809ZM34.9751 94.9722V103.001H36.6923C36.9349 103.001 37.1282 102.929 37.2722 102.785C37.4163 102.641 37.4883 102.447 37.4883 102.205V95.7682C37.4883 95.5256 37.4163 95.3323 37.2722 95.1883C37.1282 95.0442 36.9349 94.9722 36.6923 94.9722H34.9751ZM40.7853 94.0738H44.7541V94.9608H41.6836V98.543H43.8216V98.634C43.8216 98.8766 43.7495 99.0699 43.6055 99.2139C43.4615 99.358 43.2681 99.43 43.0255 99.43H41.6836V103.012H44.7541V103.899H40.7853V94.0738ZM47.1073 102.25V95.7228C47.1073 95.2072 47.2628 94.7941 47.5736 94.4832C47.8844 94.1724 48.2976 94.017 48.8131 94.017H49.7115C50.227 94.017 50.6402 94.1724 50.9511 94.4832C51.2619 94.7941 51.4173 95.2072 51.4173 95.7228V97.0192L50.5189 96.5643V95.7114C50.5189 95.4688 50.4469 95.2755 50.3029 95.1314C50.1588 94.9874 49.9655 94.9154 49.7229 94.9154H48.8018C48.5592 94.9154 48.3658 94.9874 48.2218 95.1314C48.0777 95.2755 48.0057 95.4688 48.0057 95.7114V102.262C48.0057 102.504 48.0777 102.698 48.2218 102.842C48.3658 102.986 48.5592 103.058 48.8018 103.058H49.7229C49.9655 103.058 50.1588 102.986 50.3029 102.842C50.4469 102.698 50.5189 102.504 50.5189 102.262V101.397L51.4173 101.852V102.25C51.4173 102.766 51.2619 103.179 50.9511 103.49C50.6402 103.801 50.227 103.956 49.7115 103.956H48.8131C48.2976 103.956 47.8844 103.801 47.5736 103.49C47.2628 103.179 47.1073 102.766 47.1073 102.25ZM53.8159 103.899V94.0738H54.7143V103.899H53.8159ZM57.0462 101.545H57.9105V102.25C57.9105 102.493 57.9825 102.686 58.1266 102.83C58.2706 102.974 58.4639 103.046 58.7065 103.046H59.5367C59.7793 103.046 59.9726 102.974 60.1166 102.83C60.2607 102.686 60.3327 102.493 60.3327 102.25V100.476C60.3327 100.234 60.2607 100.029 60.1166 99.8621C59.9726 99.6953 59.7831 99.593 59.548 99.5551L58.7293 99.4186C58.4791 99.3731 58.2479 99.2935 58.0356 99.1798C57.8309 99.0661 57.6527 98.9221 57.5011 98.7477C57.3571 98.5733 57.2433 98.3762 57.1599 98.1563C57.0841 97.9289 57.0462 97.6863 57.0462 97.4285V95.7228C57.0462 95.2072 57.2016 94.7941 57.5125 94.4832C57.8233 94.1724 58.2365 94.017 58.752 94.017H59.4912C60.0067 94.017 60.4199 94.1724 60.7307 94.4832C61.0416 94.7941 61.197 95.2072 61.197 95.7228V97.1101L60.3327 96.6553V95.7228C60.3327 95.4802 60.2607 95.2868 60.1166 95.1428C59.9726 94.9987 59.7793 94.9267 59.5367 94.9267H58.7065C58.4639 94.9267 58.2706 94.9987 58.1266 95.1428C57.9825 95.2868 57.9105 95.4802 57.9105 95.7228V97.4968C57.9105 97.7394 57.9825 97.9441 58.1266 98.1109C58.2706 98.2776 58.4601 98.38 58.6952 98.4179L59.5139 98.5544C59.7641 98.5999 59.9916 98.6795 60.1962 98.7932C60.4085 98.9069 60.5867 99.0509 60.7307 99.2253C60.8824 99.3997 60.9961 99.6006 61.0719 99.828C61.1553 100.048 61.197 100.287 61.197 100.544V102.25C61.197 102.766 61.0416 103.179 60.7307 103.49C60.4199 103.801 60.0067 103.956 59.4912 103.956H58.752C58.2365 103.956 57.8233 103.801 57.5125 103.49C57.2016 103.179 57.0462 102.766 57.0462 102.25V101.545ZM63.7548 103.899V94.0738H64.6532V103.899H63.7548ZM67.1015 95.7228C67.1015 95.2072 67.2569 94.7941 67.5677 94.4832C67.8786 94.1724 68.2918 94.017 68.8073 94.017H69.8194C70.3349 94.017 70.7481 94.1724 71.0589 94.4832C71.3698 94.7941 71.5252 95.2072 71.5252 95.7228V102.25C71.5252 102.766 71.3698 103.179 71.0589 103.49C70.7481 103.801 70.3349 103.956 69.8194 103.956H68.8073C68.2918 103.956 67.8786 103.801 67.5677 103.49C67.2569 103.179 67.1015 102.766 67.1015 102.25V95.7228ZM68.7959 103.058H69.8308C70.0734 103.058 70.2667 102.986 70.4107 102.842C70.5548 102.698 70.6268 102.504 70.6268 102.262V95.7114C70.6268 95.4688 70.5548 95.2755 70.4107 95.1314C70.2667 94.9874 70.0734 94.9154 69.8308 94.9154H68.7959C68.5533 94.9154 68.36 94.9874 68.2159 95.1314C68.0719 95.2755 67.9999 95.4688 67.9999 95.7114V102.262C67.9999 102.504 68.0719 102.698 68.2159 102.842C68.36 102.986 68.5533 103.058 68.7959 103.058ZM73.8669 103.899V94.0738H74.1967C74.4014 94.0738 74.5871 94.1307 74.7539 94.2444C74.9207 94.3581 75.0382 94.5135 75.1064 94.7107L77.6196 101.727V94.0738H78.518V103.899H78.1882C77.9835 103.899 77.7978 103.842 77.631 103.729C77.4642 103.615 77.3467 103.459 77.2785 103.262L74.7653 96.2459V103.899H73.8669ZM80.8553 101.545H81.7196V102.25C81.7196 102.493 81.7916 102.686 81.9356 102.83C82.0797 102.974 82.273 103.046 82.5156 103.046H83.3457C83.5884 103.046 83.7817 102.974 83.9257 102.83C84.0698 102.686 84.1418 102.493 84.1418 102.25V100.476C84.1418 100.234 84.0698 100.029 83.9257 99.8621C83.7817 99.6953 83.5921 99.593 83.3571 99.5551L82.5383 99.4186C82.2882 99.3731 82.0569 99.2935 81.8447 99.1798C81.64 99.0661 81.4618 98.9221 81.3102 98.7477C81.1661 98.5733 81.0524 98.3762 80.969 98.1563C80.8932 97.9289 80.8553 97.6863 80.8553 97.4285V95.7228C80.8553 95.2072 81.0107 94.7941 81.3215 94.4832C81.6324 94.1724 82.0456 94.017 82.5611 94.017H83.3003C83.8158 94.017 84.229 94.1724 84.5398 94.4832C84.8506 94.7941 85.0061 95.2072 85.0061 95.7228V97.1101L84.1418 96.6553V95.7228C84.1418 95.4802 84.0698 95.2868 83.9257 95.1428C83.7817 94.9987 83.5884 94.9267 83.3457 94.9267H82.5156C82.273 94.9267 82.0797 94.9987 81.9356 95.1428C81.7916 95.2868 81.7196 95.4802 81.7196 95.7228V97.4968C81.7196 97.7394 81.7916 97.9441 81.9356 98.1109C82.0797 98.2776 82.2692 98.38 82.5042 98.4179L83.323 98.5544C83.5732 98.5999 83.8006 98.6795 84.0053 98.7932C84.2176 98.9069 84.3958 99.0509 84.5398 99.2253C84.6914 99.3997 84.8051 99.6006 84.881 99.828C84.9644 100.048 85.0061 100.287 85.0061 100.544V102.25C85.0061 102.766 84.8506 103.179 84.5398 103.49C84.229 103.801 83.8158 103.956 83.3003 103.956H82.5611C82.0456 103.956 81.6324 103.801 81.3215 103.49C81.0107 103.179 80.8553 102.766 80.8553 102.25V101.545Z" fill="#F14448"/>
</svg>
